# xmcd
#
# Track frame offsets:
#	182
#	11575
#	23652
#	38977
#	47177
#	61160
#	71060
#	80670
#	90865
#	104480
#	114072
#	126582
#	136482
#	153540
#
# Disc length: 2209 seconds
#
# Revision: 1
# Processed by: cddbd v1.5PL3 Copyright (c) Steve Scherf et al.
# Submitted via: audiograbber 1.82.02
#
DISCID=b7089f0e
DTITLE=Ike and Tina Turner - Shake A Tail Feather and Other Soul Hits
DYEAR=1990
DGENRE=Oldies
TTITLE0=Poor Fool
TTITLE1=So Fine
TTITLE2=Crazy 'Bout You Baby
TTITLE3=My Babe
TTITLE4=It Sho' Ain't Me
TTITLE5=Beauty Is Just Skin Deep
TTITLE6=Ain't Nobody's Business
TTITLE7=Shake A Tail Feather
TTITLE8=It's Gonna Work Out Fine
TTITLE9=Too Hot To Hold
TTITLE10=Rock Me Baby
TTITLE11=Please Love Me
TTITLE12=I Smell Trouble
TTITLE13=We Need Understanding
EXTD=Charly Records
EXTT0=
EXTT1=
EXTT2=
EXTT3=
EXTT4=
EXTT5=
EXTT6=
EXTT7=
EXTT8=
EXTT9=
EXTT10=
EXTT11=
EXTT12=
EXTT13=
PLAYORDER=
